<svg width="20" height="20" viewBox="0 0 20 20" fill="none" xmlns="http://www.w3.org/2000/svg">
<path d="M9.35844 6.07543V2.73458C9.35844 2.37935 9.64177 2.08333 10.0001 2.08333C10.3209 2.08333 10.5928 2.33207 10.6358 2.64715L10.6418 2.73458V6.07543L14.625 6.07568C16.6084 6.07568 18.2378 7.69981 18.3293 9.72534L18.3334 9.90507V14.1045C18.3334 16.1442 16.7606 17.8185 14.8067 17.9125L14.6334 17.9167H5.36669C3.38335 17.9167 1.76176 16.3007 1.67072 14.2677L1.66669 14.0873L1.66669 9.89646C1.66669 7.85675 3.23161 6.17434 5.18502 6.07987L5.35835 6.07568H9.35835V11.411L8.02502 10.0341C7.77502 9.77599 7.36669 9.77599 7.11669 10.0341C6.99169 10.1632 6.93335 10.3353 6.93335 10.5074C6.93335 10.6382 6.97069 10.7746 7.04962 10.8899L7.11669 10.9721L9.54169 13.4849C9.65835 13.614 9.82502 13.6828 10 13.6828C10.1389 13.6828 10.2778 13.635 10.3878 13.5444L10.45 13.4849L12.875 10.9721C13.125 10.714 13.125 10.2923 12.875 10.0341C12.6477 9.79946 12.2896 9.77812 12.0386 9.97014L11.9667 10.0341L10.6417 11.411V6.07568L9.35844 6.07543Z" fill="#01B9AC"/>
</svg>
